<?xml version="1.0" encoding="UTF-8"?>
<svg xmlns="http://www.w3.org/2000/svg" xml:space="preserve" width="74.6577mm" height="34.1488mm" version="1.1" style="shape-rendering:geometricPrecision; text-rendering:geometricPrecision; image-rendering:optimizeQuality; fill-rule:evenodd; clip-rule:evenodd"
viewBox="0 0 28818.73 13181.83"
 xmlns:xlink="http://www.w3.org/1999/xlink">
 <defs>
  <style type="text/css">
    .fil0 {fill:#FEFEFE;fill-rule:nonzero}
    .fil2 {fill:#2B2A29;fill-rule:nonzero}
    .fil1 {fill:#E31E24;fill-rule:nonzero}
  </style>
 </defs>
 <g id="Layer_1">
  <polygon class="fil0" points="9204.17,9204.02 -0,9204.02 -0,0 9204.17,0 "/>
  <polygon class="fil1" points="18979.76,9204.02 9775.78,9204.02 9775.78,0 18979.76,0 "/>
  <polygon class="fil0" points="28818.73,9204.02 19614.55,9204.02 19614.55,0 28818.73,0 "/>
  <path class="fil0" d="M1323.86 12007.35l112.02 0c88.2,0 149.04,-6.41 183.51,-18.95 34.63,-12.66 61.49,-33.43 81.1,-62.69 19.76,-28.53 29.92,-63.69 29.92,-105.42 0,-71.64 -28.06,-123.52 -82.95,-156.3 -40.57,-24.32 -115.11,-36.83 -224.08,-36.83l-99.51 0 0 380.18zm-352.31 -723.54l373.77 0c201.92,0 348.07,18.45 437.47,55.93 88.86,37.67 159.65,97.82 211.03,181.31 51.88,83.46 77.4,183.51 77.4,300.39 0,128.77 -33.97,236.08 -101.21,321.89 -67.44,85.85 -159.19,145.49 -274.92,178.76 -67.94,19.11 -191.92,28.56 -371.23,28.56l0 784.53 -352.31 0 0 -1851.39z"/>
  <path class="fil0" d="M3998.46 12007.35l110.32 0c112.02,0 189.61,-14.9 231.14,-44.12 42.42,-29.72 63.88,-78.05 63.88,-146.49 0,-40.53 -10.81,-75.7 -31.61,-105.61 -20.77,-29.72 -48.83,-51.19 -83.96,-64.35 -35.32,-13.05 -99.71,-19.61 -193.16,-19.61l-96.62 0 0 380.18zm-352.31 -723.54l373.23 0c204.47,0 349.8,18.45 436.81,54.78 86.51,36.32 156.3,97.12 209.33,181.77 53.08,84.65 79.25,184.86 79.25,301.09 0,121.52 -29.22,222.88 -87.7,305.18 -58.29,81.6 -145.99,143.09 -263.41,185.36l438.62 823.21 -385.55 0 -416 -784.53 -32.27 0 0 784.53 -352.31 0 0 -1851.39z"/>
  <path class="fil0" d="M7193.44 11582.04c-171.16,0 -315.29,59.64 -432.22,178.95 -116.77,119.12 -175.21,270.48 -175.21,454.14 0,204.47 74,366.52 220.49,485.8 114.57,92.95 245.7,139.58 393.54,139.58 166.95,0 309.39,-60.33 426.81,-181.31 117.42,-120.98 176.41,-269.32 176.41,-446.42 0,-176.41 -59.64,-325.41 -177.6,-447.77 -118.58,-122.13 -262.37,-182.97 -432.22,-182.97zm3.55 -344.52c262.26,0 486.95,94.77 676.06,284.37 188.22,189.57 282.52,420.87 282.52,693.24 0,270.02 -93.14,499 -279.01,685.52 -186.02,187.22 -411.26,280.67 -676.52,280.67 -278.47,0 -509.11,-95.96 -692.77,-287.93 -184.17,-191.81 -275.92,-420.21 -275.92,-684.82 0,-177.1 42.92,-339.81 128.77,-488.15 85.31,-148.5 203.27,-265.96 352.97,-352.97 149.54,-87.05 311.05,-129.93 483.9,-129.93z"/>
  <path class="fil0" d="M10044.94 11623.61l0 1167.72 163.4 0c161.51,0 278.28,-18.57 350.42,-55.39 72.65,-37.02 132.32,-99.05 178.26,-186.56 45.97,-87.2 69.1,-194.47 69.1,-322.55 0,-196.17 -54.74,-348.76 -164.56,-457.23 -98.86,-97.16 -258.01,-145.99 -476.8,-145.99l-119.82 0zm-349.96 -339.81l417.39 0c269.32,0 469.04,33.47 600.13,100.21 130.63,66.74 238.4,175.21 323.09,325.41 84.65,150.24 127.04,325.45 127.04,525.67 0,142.59 -23.82,273.72 -71.64,393.54 -46.94,119.12 -112.52,218.64 -195.98,297.38 -83.46,78.71 -173.51,133.48 -270.71,163.36 -97.12,30.46 -265.77,45.32 -505.37,45.32l-423.96 0 0 -1850.89z"/>
  <path class="fil0" d="M12691.98 11283.81l353.47 0 0 1196.98c0,103.07 8.96,176.37 27.37,218.79 17.91,42.92 47.63,76.89 89.4,102.41 41.23,25.67 91.25,38.18 150.2,38.18 62.03,0 115.76,-13.66 160.35,-42.23 44.78,-28.76 75.7,-65.08 93.11,-109.16 17.25,-44.12 25.52,-128.08 25.52,-252.1l0 -1152.86 354.17 0 0 1103.38c0,186.52 -10.81,315.95 -31.61,388.1 -20.92,71.99 -60.84,141.78 -120.47,208.52 -58.94,67.4 -126.88,116.92 -204.43,149.04 -76.89,32.23 -166.95,48.98 -269.32,48.98 -134.18,0 -250.95,-31.07 -349.96,-93.11 -99.51,-61.34 -171.16,-138.89 -213.39,-231.34 -42.92,-92.91 -64.39,-249.05 -64.39,-470.2l0 -1103.38z"/>
  <path class="fil0" d="M17261.7 11609.26l-246.2 234.69c-168.11,-176.91 -356.52,-265.81 -566.2,-265.81 -176.56,0 -325.6,60.84 -446.58,181.81 -121.48,120.47 -181.81,270.02 -181.81,447.12 0,123.33 26.87,233 80.6,328.46 53.58,95.96 129.28,171 227.59,225.89 97.85,54.23 206.82,81.6 326.6,81.6 102.56,0 195.67,-19.07 280.17,-57.28 84.65,-37.98 177.76,-107.77 279.63,-208.48l238.44 249.05c-136.53,133.48 -265.81,225.93 -387.48,277.77 -121.63,51.88 -260.52,77.55 -416.66,77.55 -287.23,0 -523.28,-91.21 -706.29,-273.53 -183.66,-182.51 -274.92,-416.66 -274.92,-701.73 0,-184.67 41.77,-348.61 125.22,-492.4 83.46,-142.9 202.77,-258.67 358.22,-345.67 155.6,-87.55 323.71,-131.13 503.17,-131.13 152.59,0 299.74,32.27 441.02,96.66 141.43,64.89 262.91,156.1 365.48,275.42z"/>
  <polygon class="fil0" points="18593.67,11283.81 19616.6,11283.81 19616.6,11631.37 19279.84,11631.37 19279.84,13134.7 18922.13,13134.7 18922.13,11631.37 18593.67,11631.37 "/>
  <polygon class="fil0" points="21039.28,11283.65 21389.24,11283.65 21389.24,13134.5 21039.28,13134.5 "/>
  <path class="fil0" d="M23861.88 11582.04c-170.96,0 -315.29,59.64 -432.22,178.95 -116.73,119.12 -175.21,270.48 -175.21,454.14 0,204.47 74.04,366.52 220.53,485.8 114.53,92.95 245.66,139.58 393.5,139.58 166.95,0 309.39,-60.33 426.81,-181.31 117.42,-120.98 176.41,-269.32 176.41,-446.42 0,-176.41 -58.98,-325.41 -177.57,-447.77 -118.62,-122.13 -262.41,-182.97 -432.26,-182.97zm3.55 -344.52c262.26,0 486.99,94.77 676.06,284.37 188.22,189.57 282.48,420.87 282.48,693.24 0,270.02 -93.07,499 -278.93,685.52 -186.06,187.22 -411.26,280.67 -676.56,280.67 -278.47,0 -509.11,-95.96 -692.58,-287.93 -184.36,-191.81 -276.11,-420.21 -276.11,-684.82 0,-177.1 42.92,-339.81 128.77,-488.15 85.31,-148.5 203.24,-265.96 352.97,-352.97 149.54,-87.05 311.05,-129.93 483.9,-129.93z"/>
  <polygon class="fil0" points="26363.46,11283.81 26701.57,11283.81 27493.66,12502.22 27493.66,11283.81 27845.98,11283.81 27845.98,13134.7 27506.87,13134.7 26715.74,11920.5 26715.74,13134.7 26363.46,13134.7 "/>
  <polygon class="fil0" points="28818.73,10333.56 -0,10333.56 -0,10079.57 28818.73,10079.57 "/>
  <path class="fil2" d="M2121.21 2235.97l990.81 0 1185.02 1651.13c143.6,200.73 257.97,373.62 365.98,560.3l14.36 0c86.35,-172.32 200.73,-373.23 344.52,-596.12l1062.81 -1615.3 997.76 0 0 4731.57 -1098.63 0 0 -2412.84c0,-171.66 0,-365.98 7.26,-509.77l-7.26 0c-42.92,100.86 -236.59,380.99 -315.83,502.51l-768.43 1163.67 -481.09 0 -875.59 -1206.59c-100.67,-136.53 -215.09,-279.47 -315.95,-459.59l-14.21 0c7.1,157.99 7.1,344.52 7.1,473.94l0 2448.66 -1098.63 0 0 -4731.57z"/>
  <polygon class="fil0" points="13849.24,5100.64 12197.58,2235.97 13382.55,2235.97 14401.93,4167.26 14416.79,4167.26 15443.28,2235.97 16620.46,2235.97 14947.87,5115 14947.87,6967.55 13849.24,6967.55 "/>
  <path class="fil2" d="M23667.25 6041.27c1098.63,0 1550.96,-667.76 1550.96,-1443.14 0,-919.21 -553.04,-1436.04 -1572.42,-1436.04l-502.51 0 0 2879.18 523.97 0zm-1622.44 -3805.49l1708.95 0c1658.23,0 2634.53,890.64 2634.53,2326.53 0,1493.17 -1148.65,2405.24 -2749.6,2405.24l-1593.88 0 0 -4731.77z"/>
 </g>
</svg>
